<svg width="145" height="47" viewBox="0 0 145 47" fill="none" xmlns="http://www.w3.org/2000/svg">
<path d="M13.8398 23.9482L6.09457 31.8883V43.03H0V0H6.09457V24.0763L29.2032 0H36.1865L18.0298 19.3379L37.4562 43.03H30.3459L13.8398 23.9482Z" fill="#FF6060"/>
<path d="M81.8958 39.5722L84.3082 34.9619C87.1015 36.8829 91.4185 38.2916 95.6085 38.2916C101.068 38.2916 103.227 36.6267 103.227 33.8093C103.227 26.5096 82.7845 32.7848 82.7845 19.8502C82.7845 13.9591 87.9903 10.1172 96.2434 10.1172C100.433 10.1172 105.258 11.2698 108.052 13.0627L105.512 17.673C102.592 15.7521 99.4176 15.1117 96.2434 15.1117C91.1646 15.1117 88.6252 17.0327 88.6252 19.594C88.6252 27.278 109.067 21.0027 109.067 33.6812C109.067 39.5722 103.735 43.2861 95.1007 43.2861C89.8949 43.4142 84.5621 41.7493 81.8958 39.5722Z" fill="#FF6060"/>
<path d="M145 23.3078V43.0299H139.413V38.6757C137.509 41.6212 133.827 43.286 128.748 43.286C121.384 43.286 116.813 39.316 116.813 33.6811C116.813 28.4304 120.114 24.2043 129.764 24.2043H139.032V23.0517C139.032 18.0571 136.112 15.2397 130.398 15.2397C126.589 15.2397 122.653 16.6484 120.114 18.6975L117.701 14.2152C121.003 11.5258 125.828 9.98901 131.033 9.98901C140.048 10.1171 145 14.4713 145 23.3078ZM139.159 33.0408V28.4304H130.145C124.304 28.4304 122.653 30.7356 122.653 33.425C122.653 36.6266 125.32 38.6757 129.764 38.6757C134.208 38.8037 137.763 36.8827 139.159 33.0408Z" fill="#FF6060"/>
<path d="M63.1042 34.4496V43.158L66.7864 40.9809V32.2725L63.1042 34.4496Z" fill="#FF6060"/>
<path d="M73.2619 23.8202L58.1524 14.9837L49.7724 10.1172L41.5193 24.5886L41.6463 38.1635L56.6288 47L58.1524 46.1036V33.297L64.8819 21.3869L71.7383 25.357V38.1635L73.2619 37.267V23.8202Z" fill="#FF6060"/>
</svg>
